<?xml version="1.0" encoding="UTF-8"?>
<svg width="278px" height="278px" viewBox="0 0 278 278" version="1.1" xmlns="http://www.w3.org/2000/svg" xmlns:xlink="http://www.w3.org/1999/xlink">
    <!-- Generator: Sketch 57.1 (83088) - https://sketch.com -->
    <title>noun_Happy_1779220</title>
    <desc>Created with Sketch.</desc>
    <defs>
        <linearGradient x1="17.5359712%" y1="18.2062163%" x2="85.8784847%" y2="78.8753372%" id="linearGradient-1">
            <stop stop-color="#14B5A5" offset="0%"></stop>
            <stop stop-color="#429CEB" offset="48.8208221%"></stop>
            <stop stop-color="#9586CF" offset="100%"></stop>
        </linearGradient>
    </defs>
    <g id="Page-1" stroke="none" stroke-width="1" fill="none" fill-rule="evenodd">
        <g id="noun_Happy_1779220">
            <circle id="Oval" stroke="#272B2E" stroke-width="7" fill="url(#linearGradient-1)" cx="139" cy="139" r="135.5"></circle>
            <g id="Group" transform="translate(39.000000, 53.000000)" fill="#272B2E" fill-rule="nonzero">
                <path d="M200,134.915176 C200,114.225707 196.40344,96.2196456 189.3276,81.0136632 C191.51681,68.3355295 194.487881,38.0402346 180.961689,4.94486104 C179.358874,1.01697299 174.980453,-0.966416019 170.95387,0.472513265 C166.379984,2.10589245 143.432369,11.011698 126.73964,30.7678082 C112.353401,26.9954801 101.29007,27.07326 100,27.07326 C98.7099296,27.0343701 87.6465989,26.9954801 73.2603597,30.7678082 C56.567631,11.011698 33.6200156,2.10589245 29.0461298,0.472513265 C28.0297107,0.122503439 27.0132916,-0.0330564836 25.9968726,0.0058334971 C25.9968726,0.0058334971 25.9968726,0.0058334971 25.9968726,0.0058334971 C25.9186865,0.0058334971 25.8795934,0.0058334971 25.8014073,0.0058334971 C22.8694292,0.2002834 20.1720094,2.02811249 19.0383112,4.90597106 C19.0383112,4.90597106 19.0383112,4.90597106 19.0383112,4.90597106 C19.0383112,4.90597106 19.0383112,4.90597106 19.0383112,4.90597106 C19.0383112,4.90597106 19.0383112,4.90597106 19.0383112,4.90597106 C5.55121188,38.0013446 8.48318999,68.2966395 10.6724003,80.9747732 C3.55746677,96.2196456 0,114.264597 0,134.915176 C0,134.954066 0,134.954066 0,134.992956 C0,135.926316 0.390930414,136.820785 1.01641908,137.520805 C1.17279124,137.676365 2.34558249,138.959734 4.41751368,140.982013 C4.45660672,141.020903 4.49569977,141.059793 4.53479281,141.098683 C4.65207193,141.215353 4.73025801,141.293133 4.84753714,141.409803 C5.0039093,141.565363 5.12118843,141.682033 5.27756059,141.837593 C5.31665364,141.876483 5.35574668,141.876483 5.35574668,141.915373 C10.2423769,146.659951 19.0383112,154.632397 30.5707584,162.682623 C47.146208,174.232947 72.634871,188 100,188 C126.778733,188 151.720094,174.816297 168.295543,163.421532 C168.334636,163.382642 168.373729,163.382642 168.412823,163.343752 C170.95387,161.593703 173.416732,159.804764 175.684128,158.093605 C175.723221,158.054715 175.801407,158.015825 175.8405,157.976935 C176.231431,157.665815 176.622361,157.354695 177.052385,157.082465 C177.208757,156.965795 177.365129,156.849125 177.521501,156.732456 C177.834246,156.499116 178.107897,156.265776 178.420641,156.032436 C178.655199,155.837986 178.889758,155.643536 179.124316,155.487976 C179.319781,155.332416 179.515246,155.176856 179.710711,155.021296 C180.023456,154.787957 180.3362,154.515727 180.648944,154.282387 C180.766224,154.165717 180.883503,154.087937 181.000782,153.971267 C181.391712,153.660147 181.74355,153.349027 182.095387,153.076797 C182.13448,153.037907 182.212666,152.999017 182.251759,152.960127 C186.669273,149.304469 190.344019,145.998821 193.080532,143.393192 C193.080532,143.393192 193.080532,143.393192 193.080532,143.393192 C193.31509,143.159852 193.549648,142.965402 193.784206,142.732063 C193.823299,142.693173 193.901486,142.615393 193.940579,142.576503 C194.096951,142.420943 194.253323,142.265383 194.409695,142.148713 C194.526974,142.032043 194.644253,141.915373 194.722439,141.837593 C194.800625,141.759813 194.878812,141.682033 194.917905,141.643143 C197.341673,139.270854 198.749023,137.754145 198.905395,137.559695 C199.530884,136.859675 199.882721,135.965206 199.921814,135.031846 C200,134.992956 200,134.954066 200,134.915176 Z M36.3301366,157.348197 C32.5710542,146.976688 48.5471547,135.478686 64.0142129,124.330285 C79.3637997,113.298418 93.8519301,102.888065 94.3609725,90.6908598 C94.5959152,85.1749264 91.9332318,80.0085943 86.4512365,75.3083974 C82.3788971,71.8123833 72.1197345,66.7237404 49.01704,71.8900725 C37.9355781,74.376127 26.6974878,78.6878778 17.103996,84.0095883 C17.2997816,83.5822977 17.4955671,83.1550071 17.6913526,82.766561 C17.7305098,82.6500272 17.808824,82.572338 17.8479811,82.4558042 C18.3961806,81.3293108 18.9835373,80.2028173 19.610051,79.0763238 C19.6492081,79.0374792 19.6883652,78.95979 19.6883652,78.9209454 C19.962465,78.4159656 20.2365647,77.9498304 20.5106645,77.4448505 C20.6281358,77.2117829 20.7847643,77.0175599 20.9022356,76.7844923 C21.1371783,76.3960463 21.3721209,76.0076003 21.6070636,75.6191543 C21.8811633,75.1918636 22.1552631,74.764573 22.4293629,74.3372824 C22.5468342,74.1430594 22.6643055,73.9488364 22.820934,73.7546134 C24.7396323,70.8412682 26.8149591,68.0833015 29.0860714,65.4030239 C29.1252285,65.3641793 29.1643857,65.2864901 29.2035428,65.2476455 C30.5348845,63.6161722 30.3390989,61.2078069 28.7336575,59.8482458 C27.0890589,58.4498401 24.622161,58.6440632 23.212505,60.2755364 C20.7456072,63.1111924 18.4744948,66.1410714 16.399168,69.2874841 C15.2244548,55.730718 15.6160259,35.0265451 23.7998617,12.4578313 C29.3210141,16.9249606 39.6193338,26.3253543 48.1555836,40.2317218 C47.1374988,40.8143908 46.0802568,41.3970599 45.062172,41.9797289 C44.0049301,42.6012425 43.3784163,43.6112022 43.2217879,44.7376956 C43.2217879,44.7376956 43.2217879,44.7376956 43.2217879,44.7376956 C43.2217879,44.8153848 43.1826308,44.9319186 43.1826308,45.0096078 C43.1826308,45.0484524 43.1826308,45.087297 43.1826308,45.087297 C43.1826308,45.1649862 43.1826308,45.2038309 43.1826308,45.2815201 C43.1826308,45.3592093 43.1826308,45.3980539 43.1826308,45.4757431 C43.1826308,45.5145877 43.1826308,45.5534323 43.1826308,45.5922769 C43.1826308,45.6699661 43.1826308,45.7864999 43.2217879,45.8641891 C43.2217879,45.8641891 43.2217879,45.8641891 43.2217879,45.9030337 C43.3001021,46.4080135 43.4567305,46.8741487 43.7308303,47.340284 C43.8091445,47.4956624 43.9266158,47.6121962 44.0440872,47.7675746 C44.0440872,47.7675746 44.0832443,47.8064192 44.0832443,47.8064192 C44.1615585,47.922953 44.2790298,48.0394868 44.3965011,48.117176 C44.3965011,48.117176 44.4356583,48.1560206 44.4356583,48.1560206 C44.6706009,48.3890882 44.9447007,48.5833112 45.2188004,48.7386896 C45.2188004,48.7386896 45.2188004,48.7386896 45.2188004,48.7386896 C45.3754289,48.8163788 45.4929002,48.894068 45.6495286,48.9329126 C45.6495286,48.9329126 45.6495286,48.9329126 45.6495286,48.9329126 C46.119414,49.1271357 46.5892993,49.2048249 47.0983417,49.2048249 C47.0983417,49.2048249 47.0983417,49.2048249 47.0983417,49.2048249 C47.0983417,49.2048249 47.0983417,49.2048249 47.0983417,49.2048249 C47.4507557,49.2048249 47.7640125,49.1659803 48.1164265,49.0494465 C48.1164265,49.0494465 48.1164265,49.0494465 48.1164265,49.0494465 C48.273055,49.0106019 48.4296834,48.9329126 48.5863118,48.894068 C48.5863118,48.894068 48.5863118,48.894068 48.5863118,48.894068 C48.7429403,48.8163788 48.8995687,48.7386896 49.0561971,48.6610004 C52.0712946,46.8741487 55.1647062,45.2815201 58.336432,43.8442698 C58.6105318,43.727736 58.8846316,43.6112022 59.1587313,43.4946684 C59.3153598,43.4169792 59.4719882,43.3781346 59.6286166,43.3004454 C59.6677738,43.3004454 59.7069309,43.2616007 59.746088,43.2616007 C60.1768162,43.0673777 60.5683873,42.9119993 60.9991155,42.7177763 C61.5081579,42.5235533 61.9780432,42.3293303 62.4870856,42.1351073 C62.5653998,42.0962627 62.6437141,42.0962627 62.6828712,42.0574181 C81.987326,34.4827207 99.1381399,34.7157883 99.3339254,34.7157883 C99.3730825,34.7157883 99.4513967,34.7157883 99.4905538,34.7157883 C99.6863394,34.7157883 116.87631,34.4827207 136.180765,42.0574181 C136.219922,42.0574181 136.259079,42.0962627 136.259079,42.0962627 C136.807279,42.2904857 137.316321,42.5235533 137.864521,42.7566209 C138.256092,42.9119993 138.647663,43.0673777 139.039234,43.2616007 C139.117548,43.3004454 139.156706,43.3004454 139.23502,43.33929 C139.391648,43.4169792 139.548277,43.4558238 139.665748,43.533513 C139.939848,43.6500468 140.17479,43.7665806 140.44889,43.8831144 C143.620616,45.3203647 146.753185,46.9518379 149.768282,48.7386896 C151.608666,49.8263385 154.036407,49.2436695 155.132806,47.3791286 C155.406906,46.9518379 155.563534,46.4468581 155.641848,45.9807229 C155.641848,45.9807229 155.641848,45.9418783 155.641848,45.9418783 C155.641848,45.8641891 155.641848,45.7864999 155.681006,45.7088107 C155.681006,45.6699661 155.681006,45.6311215 155.681006,45.5922769 C155.681006,45.5534323 155.681006,45.4757431 155.681006,45.4368985 C155.681006,45.3592093 155.681006,45.2815201 155.681006,45.2426755 C155.681006,45.2038309 155.681006,45.2038309 155.681006,45.1649862 C155.602691,43.9608036 154.937021,42.7954655 153.801464,42.1351073 C152.78338,41.5135937 151.765295,40.9309246 150.708053,40.3871002 C159.244303,26.4807327 169.542622,17.080339 175.063775,12.6132097 C183.247611,35.1430789 183.639182,55.8860964 182.464468,69.4428625 C180.389142,66.2964498 178.157186,63.34426 175.729446,60.5086041 C174.31979,58.8771308 171.852892,58.6829078 170.208293,60.0813134 C170.129979,60.120158 170.090822,60.1978472 170.012508,60.2755364 C168.563695,61.6739421 168.407066,64.0046182 169.777565,65.5584023 C172.048677,68.2386799 174.163161,71.0354912 176.08186,73.9488364 C176.121017,74.0265256 176.199331,74.1042148 176.238488,74.181904 C176.590902,74.7257284 176.943316,75.2695528 177.29573,75.8522219 C177.491515,76.2018233 177.726458,76.5514247 177.922244,76.9010261 C178.078872,77.1729383 178.274658,77.4836952 178.431286,77.7556074 C178.666229,78.182898 178.940328,78.6101886 179.175271,79.0763238 C179.253585,79.2317022 179.371057,79.4259253 179.449371,79.5813037 C179.919256,80.4358849 180.349984,81.2516215 180.780713,82.1062028 C180.937341,82.4169596 181.093969,82.6888718 181.211441,82.9996286 C181.407226,83.3880747 181.603012,83.7765207 181.75964,84.1649667 C172.166149,78.8432562 160.928058,74.5315054 149.846596,72.0454509 C126.743902,66.8791188 116.445582,71.9677617 112.4124,75.4637758 C106.930405,80.1639727 104.267721,85.3303048 104.502664,90.8462383 C105.050863,103.043443 119.538994,113.453797 134.849423,124.485664 C150.316482,135.59522 166.292582,147.132067 162.572657,157.464731 C135.084366,176.11014 113.117228,180.072289 99.4122396,180.072289 C75.0956748,179.955755 51.9538232,167.952773 36.3301366,157.348197 Z M53.4090909,99.7010687 C53.4090909,95.3275077 56.9661604,91.7349398 61.344092,91.7349398 C65.7220237,91.7349398 69.3181818,95.2884581 69.3181818,99.662019 C69.3181818,99.662019 69.3181818,99.662019 69.3181818,99.662019 C69.3181818,104.03558 65.7611124,107.589098 61.3831807,107.589098 C57.0052491,107.667198 53.4090909,104.113679 53.4090909,99.7010687 Z M146.590909,99.6431722 C146.590909,99.6431722 146.590909,99.6431722 146.590909,99.6431722 C146.590909,104.006335 143.025078,107.590361 138.636364,107.590361 C138.636364,107.590361 138.636364,107.590361 138.636364,107.590361 C134.247649,107.590361 130.681818,104.045292 130.681818,99.6431722 C130.681818,95.2800095 134.247649,91.7349398 138.675549,91.7349398 C142.985893,91.7349398 146.590909,95.2800095 146.590909,99.6431722 Z" id="Shape"></path>
                <path d="M125.030641,136.22125 L104.786908,136.22125 L104.786908,130.88375 C106.096797,130.1975 107.843315,129.20625 109.629526,128.0625 C115.345404,124.4025 118.004875,121.161875 118.004875,117.845 C118.004875,115.63375 117.131616,111.706875 111.296657,109.99125 C108.279944,109.114375 104.469359,109 100.817549,109 C97.1260446,109 93.3154596,109.114375 90.3384401,109.99125 C84.5034819,111.66875 83.6302228,115.63375 83.6302228,117.845 C83.6302228,121.161875 86.2896936,124.4025 92.005571,128.0625 C93.7917827,129.20625 95.5383008,130.1975 96.8481894,130.88375 L96.8481894,136.22125 L75.9693593,136.22125 C73.7862117,136.22125 72,137.936875 72,140.03375 C72,144.189375 72.8732591,150.25125 74.7785515,154.445 C74.7785515,154.445 74.7785515,154.445 74.7785515,154.445 C79.1845404,164.166875 88.8300836,170 100.5,170 C112.20961,170 121.81546,164.205 126.221448,154.445 C126.221448,154.445 126.221448,154.445 126.221448,154.445 C128.126741,150.25125 129,144.15125 129,140.03375 C129,137.89875 127.213788,136.22125 125.030641,136.22125 Z M121.02,144.018519 C120.779296,146.02402 120.41824,147.988594 119.97695,149.666667 L81.0230499,149.666667 C80.5416422,147.988594 80.1805865,145.983092 79.98,144.018519 L121.02,144.018519 Z" id="Shape"></path>
            </g>
        </g>
    </g>
</svg>