<?xml version="1.0" encoding="UTF-8"?>
<svg width="278px" height="278px" viewBox="0 0 278 278" version="1.1" xmlns="http://www.w3.org/2000/svg" xmlns:xlink="http://www.w3.org/1999/xlink">
    <!-- Generator: Sketch 57.1 (83088) - https://sketch.com -->
    <title>noun_Happy_1779220</title>
    <desc>Created with Sketch.</desc>
    <g id="Page-1" stroke="none" stroke-width="1" fill="none" fill-rule="evenodd">
        <g id="noun_Happy_1779220">
            <circle id="Oval" fill="#82D7FF" cx="139" cy="139" r="139"></circle>
            <g id="Group" transform="translate(32.000000, 44.000000)" fill="#000000" fill-rule="nonzero">
                <path d="M214,144.962051 C214,122.731876 210.151681,103.384938 202.580532,87.0465956 C204.922987,73.4243455 208.102033,40.873018 193.629007,5.31309537 C191.913995,1.09270503 187.229085,-1.03838317 182.920641,0.507700423 C178.026583,2.26271423 153.472635,11.8317181 135.611415,33.059028 C120.218139,29.0057818 108.380375,29.0893539 107,29.0893539 C105.619625,29.0475678 93.7818608,29.0057818 78.3885848,33.059028 C60.5273651,11.8317181 35.9734167,2.26271423 31.0793589,0.507700423 C29.9917905,0.131626036 28.904222,-0.0355181366 27.8166536,0.00626790646 C27.8166536,0.00626790646 27.8166536,0.00626790646 27.8166536,0.00626790646 C27.7329945,0.00626790646 27.691165,0.00626790646 27.6075059,0.00626790646 C24.4702893,0.215198122 21.58405,2.17914214 20.370993,5.27130933 C20.370993,5.27130933 20.370993,5.27130933 20.370993,5.27130933 C20.370993,5.27130933 20.370993,5.27130933 20.370993,5.27130933 C20.370993,5.27130933 20.370993,5.27130933 20.370993,5.27130933 C5.93979672,40.831232 9.07701329,73.3825595 11.4194683,87.0048095 C3.80648944,103.384938 0,122.773662 0,144.962051 C0,145.003837 0,145.003837 0,145.045623 C0,146.048488 0.418295543,147.009567 1.08756841,147.761716 C1.25488663,147.92886 2.50977326,149.3078 4.72673964,151.480674 C4.76856919,151.52246 4.81039875,151.564246 4.8522283,151.606032 C4.97771697,151.73139 5.06137608,151.814962 5.18686474,151.94032 C5.35418296,152.107465 5.47967162,152.232823 5.64698984,152.399967 C5.68881939,152.441753 5.73064894,152.441753 5.73064894,152.483539 C10.9593432,157.581436 20.370993,166.147575 32.7107115,174.797286 C50.4464425,187.207741 77.719312,202 107,202 C135.653245,202 162.3405,187.834531 180.076231,175.591221 C180.118061,175.549435 180.159891,175.549435 180.20172,175.507649 C182.920641,173.627277 185.555903,171.705119 187.982017,169.866533 C188.023847,169.824747 188.107506,169.782961 188.149335,169.741175 C188.567631,169.406886 188.985927,169.072598 189.446052,168.780096 C189.61337,168.654738 189.780688,168.52938 189.948006,168.404021 C190.282643,168.153305 190.57545,167.902589 190.910086,167.651873 C191.161063,167.442942 191.412041,167.234012 191.663018,167.066868 C191.872166,166.899724 192.081314,166.73258 192.290461,166.565435 C192.625098,166.314719 192.959734,166.022217 193.294371,165.771501 C193.419859,165.646143 193.545348,165.56257 193.670837,165.437212 C194.089132,165.102924 194.465598,164.768636 194.842064,164.476133 C194.883894,164.434347 194.967553,164.392561 195.009382,164.350775 C199.736122,160.422887 203.6681,156.871074 206.596169,154.071409 C206.596169,154.071409 206.596169,154.071409 206.596169,154.071409 C206.847146,153.820692 207.098124,153.611762 207.349101,153.361046 C207.39093,153.31926 207.47459,153.235688 207.516419,153.193902 C207.683737,153.026758 207.851056,152.859613 208.018374,152.734255 C208.143862,152.608897 208.269351,152.483539 208.35301,152.399967 C208.436669,152.316395 208.520328,152.232823 208.562158,152.191037 C211.15559,149.642088 212.661454,148.012432 212.828772,147.803502 C213.498045,147.051353 213.874511,146.090274 213.916341,145.087409 C214,145.045623 214,145.003837 214,144.962051 Z M39.5289289,169.406886 C35.5132916,158.250013 52.5797498,145.881344 69.1024238,133.88875 C85.4996091,122.021514 100.976544,110.822854 101.520328,97.7020366 C101.771306,91.7684184 98.926896,86.2108747 93.0707584,81.1547635 C88.7204848,77.3940196 77.7611415,71.920048 53.0817045,77.4775917 C41.2439406,80.1518985 29.2388585,84.7901493 18.9906177,90.5148371 C19.1997654,90.0551907 19.4089132,89.5955442 19.618061,89.1776838 C19.6598905,89.0523256 19.7435496,88.9687536 19.7853792,88.8433954 C20.370993,87.6316002 20.9984363,86.4198049 21.6677091,85.2080097 C21.7095387,85.1662236 21.7513683,85.0826516 21.7513683,85.0408655 C22.0441751,84.4976469 22.336982,83.9962144 22.6297889,83.4529959 C22.7552776,83.2022796 22.9225958,82.9933494 23.0480844,82.7426331 C23.2990618,82.3247727 23.5500391,81.9069123 23.8010164,81.4890518 C24.0938233,81.0294054 24.3866302,80.5697589 24.6794371,80.1101124 C24.8049257,79.9011822 24.9304144,79.692252 25.0977326,79.4833218 C27.1473808,76.3493686 29.3643471,73.3825595 31.7904613,70.4993225 C31.8322909,70.4575365 31.8741204,70.3739644 31.91595,70.3321784 C33.3381548,68.5771645 33.129007,65.9864299 31.4139953,64.5239184 C29.657154,63.0196208 27.0218921,63.228551 25.5160281,64.9835648 C22.8807662,68.033946 20.4546521,71.2932573 18.2376857,74.6779268 C16.9827991,60.0945978 17.4010946,37.8226369 26.1434715,13.5449459 C32.0414386,18.3503408 43.0426114,28.4625632 52.1614543,43.4219666 C51.0738858,44.0487573 49.9444879,44.6755479 48.8569195,45.3023386 C47.7275215,45.9709153 47.0582486,47.0573524 46.8909304,48.2691476 C46.8909304,48.2691476 46.8909304,48.2691476 46.8909304,48.2691476 C46.8909304,48.3527197 46.8491009,48.4780778 46.8491009,48.5616499 C46.8491009,48.603436 46.8491009,48.645222 46.8491009,48.645222 C46.8491009,48.7287941 46.8491009,48.7705801 46.8491009,48.8541522 C46.8491009,48.9377243 46.8491009,48.9795104 46.8491009,49.0630824 C46.8491009,49.1048685 46.8491009,49.1466545 46.8491009,49.1884406 C46.8491009,49.2720127 46.8491009,49.3973708 46.8909304,49.4809429 C46.8909304,49.4809429 46.8909304,49.4809429 46.8909304,49.5227289 C46.9745895,50.0659475 47.1419077,50.56738 47.4347146,51.0688125 C47.5183737,51.2359567 47.6438624,51.3613148 47.7693511,51.528459 C47.7693511,51.528459 47.8111806,51.570245 47.8111806,51.570245 C47.8948397,51.6956032 48.0203284,51.8209613 48.145817,51.9045334 C48.145817,51.9045334 48.1876466,51.9463194 48.1876466,51.9463194 C48.4386239,52.1970357 48.7314308,52.4059659 49.0242377,52.5731101 C49.0242377,52.5731101 49.0242377,52.5731101 49.0242377,52.5731101 C49.1915559,52.6566821 49.3170446,52.7402542 49.4843628,52.7820403 C49.4843628,52.7820403 49.4843628,52.7820403 49.4843628,52.7820403 C49.9863174,52.9909705 50.4882721,53.0745426 51.0320563,53.0745426 C51.0320563,53.0745426 51.0320563,53.0745426 51.0320563,53.0745426 C51.0320563,53.0745426 51.0320563,53.0745426 51.0320563,53.0745426 C51.4085223,53.0745426 51.7431587,53.0327565 52.1196247,52.9073984 C52.1196247,52.9073984 52.1196247,52.9073984 52.1196247,52.9073984 C52.2869429,52.8656124 52.4542611,52.7820403 52.6215794,52.7402542 C52.6215794,52.7402542 52.6215794,52.7402542 52.6215794,52.7402542 C52.7888976,52.6566821 52.9562158,52.5731101 53.123534,52.489538 C56.3444097,50.56738 59.6489445,48.8541522 63.0371384,47.3080686 C63.3299453,47.1827105 63.6227522,47.0573524 63.915559,46.9319942 C64.0828772,46.8484222 64.2501955,46.8066361 64.4175137,46.723064 C64.4593432,46.723064 64.5011728,46.681278 64.5430023,46.681278 C65.0031274,46.4723478 65.421423,46.3052036 65.8815481,46.0962734 C66.4253323,45.8873432 66.9272869,45.678413 67.4710711,45.4694827 C67.5547303,45.4276967 67.6383894,45.4276967 67.6802189,45.3859107 C88.3021892,37.2376323 106.623534,37.4883485 106.832682,37.4883485 C106.874511,37.4883485 106.95817,37.4883485 107,37.4883485 C107.209148,37.4883485 125.572322,37.2376323 146.194292,45.3859107 C146.236122,45.3859107 146.277952,45.4276967 146.277952,45.4276967 C146.863565,45.6366269 147.407349,45.8873432 147.992963,46.1380594 C148.411259,46.3052036 148.829554,46.4723478 149.24785,46.681278 C149.331509,46.723064 149.373339,46.723064 149.456998,46.7648501 C149.624316,46.8484222 149.791634,46.8902082 149.917123,46.9737803 C150.20993,47.0991384 150.460907,47.2244966 150.753714,47.3498547 C154.141908,48.8959383 157.488272,50.6509521 160.709148,52.5731101 C162.675137,53.7431193 165.268569,53.1163286 166.439797,51.1105986 C166.732604,50.6509521 166.899922,50.1077335 166.983581,49.606301 C166.983581,49.606301 166.983581,49.564515 166.983581,49.564515 C166.983581,49.4809429 166.983581,49.3973708 167.02541,49.3137987 C167.02541,49.2720127 167.02541,49.2302266 167.02541,49.1884406 C167.02541,49.1466545 167.02541,49.0630824 167.02541,49.0212964 C167.02541,48.9377243 167.02541,48.8541522 167.02541,48.8123662 C167.02541,48.7705801 167.02541,48.7705801 167.02541,48.7287941 C166.941751,47.4334268 166.230649,46.1798455 165.017592,45.4694827 C163.930023,44.8009061 162.842455,44.1741154 161.713057,43.5891108 C170.8319,28.6297074 181.833073,18.517485 187.73104,13.71209 C196.473417,37.947995 196.891712,60.261742 195.636826,74.845071 C193.419859,71.4604015 191.035575,68.2846622 188.442142,65.2342811 C186.936278,63.4792673 184.301016,63.2703371 182.544175,64.7746346 C182.460516,64.8164207 182.418686,64.8999928 182.335027,64.9835648 C180.787334,66.4878624 180.620016,68.995025 182.08405,70.6664667 C184.510164,73.5497037 186.76896,76.5582988 188.818608,79.692252 C188.860438,79.7758241 188.944097,79.8593962 188.985927,79.9429683 C189.362392,80.5279729 189.738858,81.1129775 190.115324,81.7397681 C190.324472,82.1158425 190.57545,82.4919169 190.784597,82.8679913 C190.951916,83.1604936 191.161063,83.4947819 191.328382,83.7872842 C191.579359,84.2469307 191.872166,84.7065772 192.123143,85.2080097 C192.206802,85.3751539 192.332291,85.5840841 192.41595,85.7512282 C192.917905,86.6705212 193.37803,87.5480281 193.838155,88.467321 C194.005473,88.8016094 194.172791,89.0941117 194.29828,89.4284 C194.507428,89.8462605 194.716575,90.2641209 194.883894,90.6819813 C184.635653,84.9572934 172.630571,80.3190426 160.792807,77.6447359 C136.11337,72.0871922 125.112197,77.5611638 120.803753,81.3219077 C114.947615,86.3780189 112.103206,91.9355626 112.354183,97.8691807 C112.939797,110.989998 128.416732,122.188658 144.772088,134.055894 C161.294762,146.006702 178.36122,158.417157 174.387412,169.532245 C145.023065,189.589545 121.556685,193.851722 106.916341,193.851722 C80.9401876,193.726363 56.218921,180.814476 39.5289289,169.406886 Z M57.6829554,106.602464 C57.6829554,101.922427 61.4894449,98.0781109 66.174355,98.0781109 C70.8592651,98.0781109 74.7075841,101.880641 74.7075841,106.560678 C74.7075841,106.560678 74.7075841,106.560678 74.7075841,106.560678 C74.7075841,111.240714 70.9010946,115.043244 66.2161845,115.043244 C61.5312744,115.126817 57.6829554,111.324287 57.6829554,106.602464 Z M156.317045,106.602464 C156.317045,106.602464 156.317045,106.602464 156.317045,106.602464 C156.317045,111.282501 152.510555,115.126817 147.825645,115.126817 C147.825645,115.126817 147.825645,115.126817 147.825645,115.126817 C143.140735,115.126817 139.334246,111.324287 139.334246,106.602464 C139.334246,101.922427 143.140735,98.119897 147.867475,98.119897 C152.468726,98.119897 156.317045,101.922427 156.317045,106.602464 Z" id="Shape"></path>
                <path d="M133.047776,146.844867 L111.552038,146.844867 L111.552038,141.015878 C112.942939,140.266436 114.797473,139.18391 116.694156,137.93484 C122.763541,133.937819 125.587491,130.39879 125.587491,126.776489 C125.587491,124.361622 124.660223,120.073152 118.464393,118.199548 C115.261107,117.241928 111.21485,117.117021 107.337188,117.117021 C103.417377,117.117021 99.3711207,117.241928 96.2099828,118.199548 C90.0141527,120.031516 89.0868856,124.361622 89.0868856,126.776489 C89.0868856,130.39879 91.9108354,133.937819 97.98022,137.93484 C99.8769027,139.18391 101.731437,140.266436 103.122338,141.015878 L103.122338,146.844867 L80.9522242,146.844867 C78.6340564,146.844867 76.7373737,148.718471 76.7373737,151.008431 C76.7373737,155.546715 77.6646408,162.166782 79.6877691,166.746702 C79.6877691,166.746702 79.6877691,166.746702 79.6877691,166.746702 C84.3662531,177.36379 94.6083397,183.734043 107,183.734043 C119.433809,183.734043 129.633747,177.405426 134.312231,166.746702 C134.312231,166.746702 134.312231,166.746702 134.312231,166.746702 C136.335359,162.166782 137.262626,155.50508 137.262626,151.008431 C137.262626,148.676835 135.365944,146.844867 133.047776,146.844867 Z M128.537886,155.171995 C128.284995,157.212141 127.905658,159.210652 127.442025,160.917713 L86.5158268,160.917713 C86.0100447,159.210652 85.6307082,157.170505 85.4199657,155.171995 L128.537886,155.171995 Z" id="Shape"></path>
            </g>
        </g>
    </g>
</svg>