<?xml version="1.0" encoding="utf-8"?>
<!-- Generator: Adobe Illustrator 26.5.0, SVG Export Plug-In . SVG Version: 6.00 Build 0)  -->
<svg version="1.1" id="Layer_1" xmlns="http://www.w3.org/2000/svg" xmlns:xlink="http://www.w3.org/1999/xlink" x="0px" y="0px"
	 viewBox="0 0 500 500" style="enable-background:new 0 0 500 500;" xml:space="preserve">
<style type="text/css">
	.st0{fill:none;}
	.st1{fill:url(#SVGID_1_);}
	.st2{fill:#212527;}
</style>
<rect class="st0" width="500" height="500"/>
<g>
	
		<radialGradient id="SVGID_1_" cx="203.99" cy="319.8" r="317.2" gradientTransform="matrix(1 0 0 -1 -0.15 501.85)" gradientUnits="userSpaceOnUse">
		<stop  offset="0" style="stop-color:#31CBDB"/>
		<stop  offset="0.41" style="stop-color:#25A1D8"/>
		<stop  offset="1" style="stop-color:#917CCD"/>
	</radialGradient>
	<circle class="st1" cx="250" cy="250" r="240"/>
	<path class="st2" d="M250,28c30,0,59,5.9,86.4,17.4C362.8,56.6,386.6,72.6,407,93s36.4,44.1,47.6,70.6C466.1,191,472,220,472,250
		s-5.9,59-17.4,86.4c-11.2,26.4-27.2,50.2-47.6,70.6s-44.1,36.4-70.6,47.6C309,466.1,280,472,250,472s-59-5.9-86.4-17.4
		c-26.4-11.2-50.2-27.2-70.6-47.6s-36.4-44.1-47.6-70.6C33.9,309,28,280,28,250s5.9-59,17.4-86.4C56.6,137.2,72.6,113.4,93,93
		s44.1-36.4,70.6-47.6C191,33.9,220,28,250,28 M250,10C117.5,10,10,117.5,10,250s107.5,240,240,240s240-107.5,240-240
		S382.5,10,250,10L250,10z"/>
</g>
<circle class="st2" cx="250.2" cy="346.5" r="20.4"/>
<path class="st2" d="M423.3,279.8c-11.7-24.2-21.1-42.6-28.6-55.9c6.3-10.5,11.3-21.9,14.7-33.7c1.9-6.4,17.6-63.4-6.9-78
	c-6.9-4.1-13.8-2.7-24.4-0.5c-11.5,2.4-21.5,6.6-38.2,16c-6.4,3.6-12.5,7.3-18.5,11.1c-20.6-11.5-45.1-17.4-70-17.5
	c-0.4-0.1-0.8-0.1-1.3-0.1c-0.7,0-1.4,0.1-2,0.2c-24.2,0.4-48.3,6.2-69.2,17.4c-6.1-3.8-12.2-7.5-18.6-11.1
	c-16.7-9.4-26.7-13.5-38.3-16c-10.5-2.2-17.4-3.7-24.2,0.5c-24.6,14.6-8.9,71.6-7,78c3.4,11.8,8.3,23.2,14.7,33.7
	c-7.5,13.3-16.9,31.7-28.6,55.9c-5.9,12.4-10.1,26.5-14.1,40.4c-4.3,14.7,4.1,30,18.7,34.4c3.5,1,7.1,1.4,10.8,1
	c12.8-1.4,25.7-1.5,38.5-0.4l8.9,0.7c20,1.6,26.6,2.2,44.5,5.6c9.6,8.3,20.3,15.2,31.8,20.5c4.2,1.8,8.2,3.4,12.1,4.8
	c14.3,4.9,29.8,4.9,44,0c3.8-1.3,7.9-2.9,12.1-4.8c11.5-5.3,22.2-12.2,31.8-20.5c17.9-3.5,24.6-4,44.5-5.6l9-0.7
	c12.8-1.1,25.7-1,38.5,0.4c15.2,1.6,28.8-9.4,30.4-24.6c0.4-3.7,0-7.4-1-11C433.4,306.3,429.3,292.2,423.3,279.8z M186.7,276.6
	c0-6.8,5.5-12.3,12.3-12.3c6.8,0,12.3,5.5,12.3,12.3c0,6.8-5.5,12.3-12.3,12.3c0,0,0,0,0,0C192.2,288.8,186.8,283.3,186.7,276.6z
	 M301.3,288.8c-6.8,0-12.3-5.5-12.3-12.3s5.5-12.3,12.3-12.3c6.8,0,12.3,5.5,12.3,12.3c0,0,0,0,0,0
	C313.6,283.3,308.1,288.8,301.3,288.8C301.3,288.8,301.3,288.8,301.3,288.8L301.3,288.8z M416.1,332.3c-1.5,1.8-3.7,2.7-6,2.4
	c-5.3-0.6-11.4-1-18.4-1.2L390,330c-7.7-16-17.4-35.8-35.2-53.8c-20.4-20.5-35.9-29.3-49.8-35.8c-2.7-1.3-5.7-1.9-8.7-1.9
	c-8.1,0-15.5,4.7-18.9,12.1L264,279.2c-4.6,9.8-0.8,21.5,8.6,26.8c9.1,5,16,10.1,21,15.5c5.7,6.1,10.3,13,13.9,20.6
	c-1.1,0.4-2.1,1-3,1.7c-7.5,6.4-16.7,13.7-28.7,19.1c-3.6,1.6-7.1,3-10.4,4.1c-9.8,3.4-20.5,3.4-30.3,0c-3.3-1.1-6.8-2.5-10.4-4.1
	c-12-5.3-21.3-12.6-28.8-19.1c-0.6-0.5-1.3-1-2-1.3c2.7-7.8,7.1-15,12.9-21c5.1-5.4,11.9-10.5,21-15.5c9.4-5.3,13.2-17,8.6-26.8
	l-12.8-27.6c-3.4-7.4-10.5-12.9-18.6-13.2c-3.3-0.1-6.5,0.5-9.5,1.9c-13.9,6.5-29.5,15.3-49.8,35.8c-17.9,18-27.5,37.8-35.2,53.8
	c-0.6,1.2-1.1,2.4-1.7,3.6c-7.1,0.2-13.1,0.7-18.4,1.2c-3.7,0.4-7-2.2-7.5-5.9c-0.1-1,0-2,0.3-3c3.7-12.8,7.6-26.1,12.8-36.9
	c13.2-27.3,23.4-46.9,31-60.1c2-3.4,1.9-7.7-0.3-11c-6.8-10.3-12.1-21.6-15.5-33.5c-7.8-26.8-6.5-50-2.8-53.9c3.3,0.4,6.5,1,9.7,1.7
	c7.9,1.7,15.7,4.5,32.3,13.8c7.9,4.5,15.3,9,22.8,13.8c0.2,0.2,0.5,0.2,0.8,0.4c0.3,0.2,0.5,0.3,0.8,0.4c0.4,0.2,0.7,0.3,1.1,0.4
	c0.2,0.1,0.5,0.1,0.7,0.2c0.4,0.1,0.8,0.2,1.3,0.2c0.2,0,0.5,0.1,0.7,0.1c0.4,0,0.9,0,1.3-0.1c0.2,0,0.5,0,0.7-0.1
	c0.4-0.1,0.9-0.2,1.3-0.3c0.2-0.1,0.4-0.1,0.7-0.2c0.5-0.2,0.9-0.4,1.4-0.6c0.1-0.1,0.3-0.1,0.4-0.2c16.5-10,35.9-15.7,55.6-17.3
	v24.3c0,5.8,4.7,10.5,10.5,10.5c5.8,0,10.5-4.7,10.5-10.5v-24.4c3.4,0.2,6.7,0.6,9.9,1.1v9.4c-0.2,5.8,4.3,10.6,10.1,10.8
	s10.6-4.3,10.8-10.1c0-0.2,0-0.5,0-0.7v-4.5c8.6,2.8,16.9,6.6,24.5,11.4c0.4,0.2,0.8,0.3,1.1,0.5c0.3,0.2,0.4,0.2,0.6,0.3
	c1.2,0.5,2.5,0.8,3.8,0.8c2.1,0,4.2-0.7,5.9-1.9c7.4-4.8,14.8-9.3,22.6-13.7c16.6-9.3,24.4-12.1,32.3-13.8c3.2-0.8,6.4-1.3,9.6-1.7
	c3.7,3.7,5,27-2.8,53.9c-3.4,11.9-8.6,23.2-15.5,33.5c-2.2,3.3-2.3,7.6-0.3,11c7.7,13.2,17.8,32.8,31,60c5.2,10.8,9,24.1,12.9,37.3
	C418,328.3,417.5,330.6,416.1,332.3L416.1,332.3z"/>
<path class="st2" d="M380.5,147.8c-0.5-1.8-2.3-2.9-4.1-2.4c-0.1,0-0.2,0.1-0.3,0.1c-16,5.4-31.3,14.1-40.9,24
	c-1.2,1.2-1.3,3.1-0.3,4.5l24.5,31.1c0.7,0.8,1.7,1.3,2.7,1.3h0.1c1.1,0,2.1-0.6,2.7-1.4c5.1-7.3,9.1-15.3,12-23.7
	C381.6,166.2,382.1,153.6,380.5,147.8z"/>
<path class="st2" d="M122.4,145.5c-1.8-0.6-3.7,0.3-4.3,2c0,0.1-0.1,0.2-0.1,0.3c-1.6,5.8-1.1,18.4,3.5,33.5
	c2.9,8.4,6.9,16.4,12,23.7c0.6,0.9,1.7,1.4,2.7,1.4h0.1c1.1,0,2.1-0.5,2.7-1.3l24.5-31.1c1-1.4,0.9-3.3-0.3-4.5
	C153.7,159.6,138.4,150.9,122.4,145.5z"/>
</svg>
