<?xml version="1.0" encoding="UTF-8"?>
<svg width="278px" height="278px" viewBox="0 0 278 278" version="1.1" xmlns="http://www.w3.org/2000/svg" xmlns:xlink="http://www.w3.org/1999/xlink">
    <!-- Generator: Sketch 57.1 (83088) - https://sketch.com -->
    <title>noun_Happy_1779220</title>
    <desc>Created with Sketch.</desc>
    <defs>
        <linearGradient x1="14.7678732%" y1="15.3046313%" x2="88.3964703%" y2="87.8147482%" id="linearGradient-1">
            <stop stop-color="#429CEB" offset="0%"></stop>
            <stop stop-color="#9F95C8" offset="53.1751478%"></stop>
            <stop stop-color="#E68680" offset="100%"></stop>
        </linearGradient>
        <path d="M176,119.12723 C176,100.858869 172.835027,84.9598999 166.608288,71.5333409 C168.534793,60.3388186 171.149335,33.5887178 159.246286,4.36620709 C157.835809,0.897965516 153.982799,-0.853324783 150.439406,0.41721916 C146.414386,1.85945823 126.220485,9.72309506 111.530884,27.16732 C98.870993,23.8364345 89.1352619,23.9051126 88,23.9051126 C86.8647381,23.8707736 77.129007,23.8364345 64.4691165,27.16732 C49.7795152,9.72309506 29.5856138,1.85945823 25.5605942,0.41721916 C24.6661454,0.10816793 23.7716966,-0.0291881717 22.8772478,0.00515085382 C22.8772478,0.00515085382 22.8772478,0.00515085382 22.8772478,0.00515085382 C22.8084441,0.00515085382 22.7740422,0.00515085382 22.7052385,0.00515085382 C20.1250977,0.176845981 17.7513683,1.79078018 16.7537138,4.33186806 C16.7537138,4.33186806 16.7537138,4.33186806 16.7537138,4.33186806 C16.7537138,4.33186806 16.7537138,4.33186806 16.7537138,4.33186806 C16.7537138,4.33186806 16.7537138,4.33186806 16.7537138,4.33186806 C4.88506646,33.5543787 7.46520719,60.3044796 9.39171228,71.4990019 C3.13057076,84.9598999 0,100.893208 0,119.12723 C0,119.161569 0,119.161569 0,119.195908 C0,120.020045 0.344018765,120.809842 0.894448788,121.427945 C1.03205629,121.565301 2.06411259,122.698489 3.88741204,124.484118 C3.92181392,124.518457 3.95621579,124.552796 3.99061767,124.587135 C4.0938233,124.690152 4.16262705,124.75883 4.26583268,124.861847 C4.40344019,124.999204 4.50664582,125.102221 4.64425332,125.239577 C4.6786552,125.273916 4.71305708,125.273916 4.71305708,125.308255 C9.01329163,129.497616 16.7537138,136.537116 26.9022674,143.645294 C41.488663,153.843985 63.9186865,166 88,166 C111.565285,166 133.513683,154.35907 148.100078,144.297736 C148.13448,144.263397 148.168882,144.263397 148.203284,144.229058 C150.439406,142.683802 152.606724,141.104207 154.602033,139.593289 C154.636435,139.55895 154.705238,139.524611 154.73964,139.490272 C155.083659,139.21556 155.427678,138.940848 155.806099,138.700475 C155.943706,138.597458 156.081314,138.494441 156.218921,138.391424 C156.494136,138.185389 156.734949,137.979355 157.010164,137.773321 C157.216575,137.601626 157.422987,137.429931 157.629398,137.292575 C157.801407,137.155219 157.973417,137.017862 158.145426,136.880506 C158.420641,136.674472 158.695856,136.434099 158.971071,136.228065 C159.074277,136.125048 159.177482,136.05637 159.280688,135.953353 C159.624707,135.678641 159.934324,135.403928 160.243941,135.163555 C160.278342,135.129216 160.347146,135.094877 160.381548,135.060538 C164.26896,131.83267 167.502737,128.913852 169.910868,126.613138 C169.910868,126.613138 169.910868,126.613138 169.910868,126.613138 C170.117279,126.407104 170.32369,126.235408 170.530102,126.029374 C170.564504,125.995035 170.633307,125.926357 170.667709,125.892018 C170.805317,125.754662 170.942924,125.617306 171.080532,125.514289 C171.183737,125.411272 171.286943,125.308255 171.355747,125.239577 C171.42455,125.170899 171.493354,125.102221 171.527756,125.067882 C173.660672,122.973201 174.89914,121.633979 175.036747,121.462284 C175.587177,120.844182 175.896794,120.054384 175.931196,119.230247 C176,119.195908 176,119.161569 176,119.12723 Z M31.9705202,138.93511 C28.6625277,129.777289 42.7214962,119.624797 56.3325073,109.780997 C69.8401437,100.040093 82.5896985,90.8479722 83.0376558,80.0780997 C83.2444054,75.2076477 80.901244,70.6458864 76.0770881,66.4957126 C72.4934295,63.4088065 63.4653663,58.9156431 43.1349952,63.4774044 C33.3833087,65.6725377 23.4937892,69.4797219 15.0515165,74.178679 C15.2238078,73.8013905 15.396099,73.424102 15.5683903,73.0811124 C15.6028486,72.9782155 15.6717651,72.9096176 15.7062234,72.8067207 C16.1886389,71.812051 16.7055128,70.8173812 17.2568449,69.8227115 C17.2913031,69.7884125 17.3257614,69.7198146 17.3257614,69.6855156 C17.5669692,69.2396292 17.808177,68.8280417 18.0493848,68.3821553 C18.1527595,68.1763615 18.2905926,68.0048667 18.3939673,67.799073 C18.6007169,67.4560834 18.8074664,67.1130939 19.0142159,66.7701043 C19.2554237,66.3928158 19.4966315,66.0155272 19.7378393,65.6382387 C19.8412141,65.4667439 19.9445889,65.2952491 20.0824219,65.1237543 C21.7708764,62.5513326 23.597164,60.1161066 25.5957429,57.7494786 C25.6302011,57.7151796 25.6646594,57.6465817 25.6991176,57.6122827 C26.8706983,56.1717265 26.6984071,54.0451912 25.2856186,52.8447277 C23.8383718,51.6099652 21.6675017,51.78146 20.4270044,53.2220162 C18.2561343,55.7258401 16.2575555,58.4011587 14.4312679,61.1793743 C13.3975202,49.2090382 13.7421028,30.9276941 20.9438783,11 C25.8024924,14.9443801 34.8650138,23.2447277 42.3769136,35.5237543 C41.4809989,36.0382387 40.550626,36.5527231 39.6547114,37.0672074 C38.7243384,37.6159907 38.1730064,38.5077636 38.0351733,39.5024334 C38.0351733,39.5024334 38.0351733,39.5024334 38.0351733,39.5024334 C38.0351733,39.5710313 38.0007151,39.6739282 38.0007151,39.7425261 C38.0007151,39.776825 38.0007151,39.811124 38.0007151,39.811124 C38.0007151,39.8797219 38.0007151,39.9140209 38.0007151,39.9826188 C38.0007151,40.0512167 38.0007151,40.0855156 38.0007151,40.1541136 C38.0007151,40.1884125 38.0007151,40.2227115 38.0007151,40.2570104 C38.0007151,40.3256083 38.0007151,40.4285052 38.0351733,40.4971031 C38.0351733,40.4971031 38.0351733,40.4971031 38.0351733,40.5314021 C38.1040898,40.9772885 38.2419229,41.388876 38.4831307,41.8004635 C38.5520472,41.9376593 38.6554219,42.0405562 38.7587967,42.177752 C38.7587967,42.177752 38.793255,42.212051 38.793255,42.212051 C38.8621715,42.3149479 38.9655462,42.4178447 39.068921,42.4864426 C39.068921,42.4864426 39.1033793,42.5207416 39.1033793,42.5207416 C39.3101288,42.7265353 39.5513366,42.8980301 39.7925444,43.035226 C39.7925444,43.035226 39.7925444,43.035226 39.7925444,43.035226 C39.9303774,43.1038239 40.0337522,43.1724218 40.1715852,43.2067207 C40.1715852,43.2067207 40.1715852,43.2067207 40.1715852,43.2067207 C40.5850843,43.3782155 40.9985834,43.4468134 41.4465407,43.4468134 C41.4465407,43.4468134 41.4465407,43.4468134 41.4465407,43.4468134 C41.4465407,43.4468134 41.4465407,43.4468134 41.4465407,43.4468134 C41.756665,43.4468134 42.032331,43.4125145 42.3424553,43.3096176 C42.3424553,43.3096176 42.3424553,43.3096176 42.3424553,43.3096176 C42.4802884,43.2753187 42.6181214,43.2067207 42.7559544,43.1724218 C42.7559544,43.1724218 42.7559544,43.1724218 42.7559544,43.1724218 C42.8937874,43.1038239 43.0316205,43.035226 43.1694535,42.966628 C45.8227392,41.388876 48.5449414,39.9826188 51.3360602,38.7135574 C51.577268,38.6106605 51.8184758,38.5077636 52.0596836,38.4048667 C52.1975166,38.3362688 52.3353496,38.3019699 52.4731826,38.233372 C52.5076409,38.233372 52.5420992,38.199073 52.5765574,38.199073 C52.9555982,38.0275782 53.3001808,37.8903824 53.6792216,37.7188876 C54.1271789,37.5473928 54.540678,37.375898 54.9886353,37.2044032 C55.0575519,37.1701043 55.1264684,37.1701043 55.1609266,37.1358053 C72.1488469,30.4475087 87.2415631,30.6533024 87.4138544,30.6533024 C87.4483126,30.6533024 87.5172291,30.6533024 87.5516874,30.6533024 C87.7239787,30.6533024 102.851153,30.4475087 119.839073,37.1358053 C119.873532,37.1358053 119.90799,37.1701043 119.90799,37.1701043 C120.390405,37.3415991 120.838363,37.5473928 121.320778,37.7531866 C121.665361,37.8903824 122.009944,38.0275782 122.354526,38.199073 C122.423443,38.233372 122.457901,38.233372 122.526817,38.2676709 C122.66465,38.3362688 122.802483,38.3705678 122.905858,38.4391657 C123.147066,38.5420626 123.353816,38.6449594 123.595023,38.7478563 C126.386142,40.0169177 129.142803,41.4574739 131.796088,43.035226 C133.415626,43.9955968 135.552038,43.4811124 136.516869,41.8347625 C136.758077,41.4574739 136.89591,41.0115875 136.964827,40.6 C136.964827,40.6 136.964827,40.565701 136.964827,40.565701 C136.964827,40.4971031 136.964827,40.4285052 136.999285,40.3599073 C136.999285,40.3256083 136.999285,40.2913094 136.999285,40.2570104 C136.999285,40.2227115 136.999285,40.1541136 136.999285,40.1198146 C136.999285,40.0512167 136.999285,39.9826188 136.999285,39.9483198 C136.999285,39.9140209 136.999285,39.9140209 136.999285,39.8797219 C136.930368,38.8164542 136.344578,37.7874855 135.345289,37.2044032 C134.449374,36.6556199 133.553459,36.1411356 132.623086,35.6609502 C140.134986,23.3819235 149.197508,15.0815759 154.056122,11.1371958 C161.257897,31.030591 161.60248,49.3462341 160.568732,61.3165701 C158.742445,58.5383546 156.778324,55.9316338 154.641912,53.42781 C153.401415,51.9872538 151.230545,51.815759 149.783298,53.0505214 C149.714381,53.0848204 149.679923,53.1534183 149.611007,53.2220162 C148.336051,54.4567787 148.198218,56.5147161 149.404257,57.8866744 C151.402836,60.2533024 153.263582,62.7228273 154.952036,65.2952491 C154.986495,65.363847 155.055411,65.432445 155.089869,65.5010429 C155.399994,65.9812283 155.710118,66.4614137 156.020242,66.975898 C156.192534,67.2845886 156.399283,67.5932793 156.571574,67.9019699 C156.709407,68.1420626 156.881699,68.4164542 157.019532,68.6565469 C157.226281,69.0338355 157.467489,69.411124 157.674239,69.8227115 C157.743155,69.9599073 157.84653,70.1314021 157.915446,70.2685979 C158.328945,71.023175 158.707986,71.7434531 159.087027,72.4980301 C159.22486,72.7724218 159.362693,73.0125145 159.466068,73.2869061 C159.638359,73.6298957 159.81065,73.9728853 159.948484,74.3158749 C151.506211,69.6169177 141.616691,65.8097335 131.865005,63.6146002 C111.534634,59.0528389 102.472112,63.5460023 98.9229119,66.6329085 C94.098756,70.7830823 91.7555946,75.3448436 91.9623442,80.2152955 C92.4447598,90.985168 105.194315,100.177289 118.667493,109.918192 C132.278504,119.727694 146.337472,129.914484 143.063938,139.038007 C118.874242,155.501506 99.5431605,159 87.4827709,159 C66.0841938,158.897103 45.7193644,148.298725 31.9705202,138.93511 Z M47,88.0339224 C47,84.1721611 50.1302211,81 53.982801,81 C57.8353808,81 61,84.137681 61,87.9994423 C61,87.9994423 61,87.9994423 61,87.9994423 C61,91.8612036 57.8697789,94.9988847 54.017199,94.9988847 C50.1646192,95.0678447 47,91.9301637 47,88.0339224 Z M129,87.982801 C129,87.982801 129,87.982801 129,87.982801 C129,91.8353808 125.862069,95 122,95 C122,95 122,95 122,95 C118.137931,95 115,91.8697789 115,87.982801 C115,84.1302211 118.137931,81 122.034483,81 C125.827586,81 129,84.1302211 129,87.982801 Z" id="path-2"></path>
        <filter x="-1.4%" y="-1.5%" width="104.0%" height="106.0%" filterUnits="objectBoundingBox" id="filter-3">
            <feOffset dx="2" dy="5" in="SourceAlpha" result="shadowOffsetOuter1"></feOffset>
            <feColorMatrix values="0 0 0 0 0   0 0 0 0 0   0 0 0 0 0  0 0 0 0.298841783 0" type="matrix" in="shadowOffsetOuter1"></feColorMatrix>
        </filter>
        <path d="M109.518106,120.0975 L91.7604457,120.0975 L91.7604457,115.3725 C92.9094708,114.765 94.4415042,113.8875 96.0083565,112.875 C101.022284,109.635 103.355153,106.76625 103.355153,103.83 C103.355153,101.8725 102.589136,98.39625 97.4707521,96.8775 C94.8245125,96.10125 91.4818942,96 88.2785515,96 C85.04039,96 81.6977716,96.10125 79.086351,96.8775 C73.9679666,98.3625 73.2019499,101.8725 73.2019499,103.83 C73.2019499,106.76625 75.5348189,109.635 80.5487465,112.875 C82.1155989,113.8875 83.6476323,114.765 84.7966574,115.3725 L84.7966574,120.0975 L66.4818942,120.0975 C64.5668524,120.0975 63,121.61625 63,123.4725 C63,127.15125 63.7660167,132.5175 65.4373259,136.23 C65.4373259,136.23 65.4373259,136.23 65.4373259,136.23 C69.3022284,144.83625 77.7632312,150 88,150 C98.2715877,150 106.697772,144.87 110.562674,136.23 C110.562674,136.23 110.562674,136.23 110.562674,136.23 C112.233983,132.5175 113,127.1175 113,123.4725 C113,121.5825 111.433148,120.0975 109.518106,120.0975 Z M106,127 C105.788856,128.775362 105.472141,130.514493 105.085044,132 L70.914956,132 C70.4926686,130.514493 70.1759531,128.73913 70,127 L106,127 Z" id="path-4"></path>
        <filter x="-5.0%" y="-4.6%" width="114.0%" height="118.5%" filterUnits="objectBoundingBox" id="filter-5">
            <feOffset dx="2" dy="5" in="SourceAlpha" result="shadowOffsetOuter1"></feOffset>
            <feColorMatrix values="0 0 0 0 0   0 0 0 0 0   0 0 0 0 0  0 0 0 0.298841783 0" type="matrix" in="shadowOffsetOuter1"></feColorMatrix>
        </filter>
    </defs>
    <g id="Page-1" stroke="none" stroke-width="1" fill="none" fill-rule="evenodd">
        <g id="noun_Happy_1779220">
            <circle id="Oval" fill="url(#linearGradient-1)" cx="139" cy="139" r="139"></circle>
            <g id="Group" transform="translate(51.000000, 61.000000)" fill-rule="nonzero">
                <g id="Shape">
                    <use fill="black" fill-opacity="1" filter="url(#filter-3)" xlink:href="#path-2"></use>
                    <use fill="#FFFFFF" xlink:href="#path-2"></use>
                </g>
                <g id="Shape">
                    <use fill="black" fill-opacity="1" filter="url(#filter-5)" xlink:href="#path-4"></use>
                    <use fill="#FFFFFF" xlink:href="#path-4"></use>
                </g>
            </g>
        </g>
    </g>
</svg>